HIERARCHY
ROOT Hips
{
	OFFSET 0.000000 0.000000 0.000000
	CHANNELS 6 Xposition Yposition Zposition Xrotation Yrotation Zrotation
	JOINT Thigh.L
	{
		OFFSET 0.055764 0.027501 -0.095303
		CHANNELS 3 Xrotation Yrotation Zrotation
		JOINT Shin.L
		{
			OFFSET 0.060609 0.006445 -0.414445
			CHANNELS 3 Xrotation Yrotation Zrotation
			JOINT Foot.L
			{
				OFFSET -0.042376 0.032386 -0.440015
				CHANNELS 3 Xrotation Yrotation Zrotation
				JOINT Toe.L
				{
					OFFSET 0.048349 -0.126911 -0.064678
					CHANNELS 3 Xrotation Yrotation Zrotation
					End Site
					{
						OFFSET 0.000000 0.050000 0.000000
					}
				}
			}
		}
	}
	JOINT Thigh.R
	{
		OFFSET -0.060941 0.021775 -0.107916
		CHANNELS 3 Xrotation Yrotation Zrotation
		JOINT Shin.R
		{
			OFFSET -0.049531 0.014555 -0.395793
			CHANNELS 3 Xrotation Yrotation Zrotation
			JOINT Foot.R
			{
				OFFSET 0.014150 0.020439 -0.449108
				CHANNELS 3 Xrotation Yrotation Zrotation
				JOINT Toe.R
				{
					OFFSET -0.039730 -0.127740 -0.064489
					CHANNELS 3 Xrotation Yrotation Zrotation
					End Site
					{
						OFFSET 0.000000 0.050000 0.000000
					}
				}
			}
		}
	}
	JOINT Spine
	{
		OFFSET -0.002740 0.027327 0.114620
		CHANNELS 3 Xrotation Yrotation Zrotation
		JOINT Spine.2
		{
			OFFSET 0.009215 0.006445 0.141763
			CHANNELS 3 Xrotation Yrotation Zrotation
			JOINT Chest
			{
				OFFSET -0.010955 -0.023740 0.056451
				CHANNELS 3 Xrotation Yrotation Zrotation
				JOINT Neck
				{
					OFFSET -0.012278 0.025927 0.170112
					CHANNELS 3 Xrotation Yrotation Zrotation
					JOINT Head
					{
						OFFSET 0.025580 -0.020691 0.168421
						CHANNELS 3 Xrotation Yrotation Zrotation
						End Site
						{
							OFFSET 0.000000 0.050000 0.000000
						}
					}
				}
				JOINT Clavicle.L
				{
					OFFSET 0.047713 0.004458 0.087668
					CHANNELS 3 Xrotation Yrotation Zrotation
					JOINT UpperArm.L
					{
						OFFSET 0.128063 0.013969 0.058818
						CHANNELS 3 Xrotation Yrotation Zrotation
						JOINT ForeArm.L
						{
							OFFSET 0.270854 0.043399 -0.076019
							CHANNELS 3 Xrotation Yrotation Zrotation
							JOINT Hand.L
							{
								OFFSET 0.274683 0.000676 0.022791
								CHANNELS 3 Xrotation Yrotation Zrotation
								JOINT Thumb1.L
								{
									OFFSET 0.154589 0.000294 0.009923
									CHANNELS 3 Xrotation Yrotation Zrotation
									JOINT Thumb2.L
									{
										OFFSET 0.029897 0.000074 0.002481
										CHANNELS 3 Xrotation Yrotation Zrotation
										End Site
										{
											OFFSET 0.024914 0.000061 0.002067
										}
									}
								}
								JOINT Index1.L
								{
									OFFSET 0.137589 0.000294 0.009923
									CHANNELS 3 Xrotation Yrotation Zrotation
									JOINT Index2.L
									{
										OFFSET 0.029897 0.000074 0.002481
										CHANNELS 3 Xrotation Yrotation Zrotation
										JOINT Index3.L
										{
											OFFSET 0.021925 0.000054 0.001819
											CHANNELS 3 Xrotation Yrotation Zrotation
											End Site
											{
												OFFSET 0.017938 0.000044 0.001488
											}
										}
									}
								}
								JOINT Middle1.L
								{
									OFFSET 0.119589 0.000294 0.009923
									CHANNELS 3 Xrotation Yrotation Zrotation
									JOINT Middle2.L
									{
										OFFSET 0.030894 0.000076 0.002563
										CHANNELS 3 Xrotation Yrotation Zrotation
										JOINT Middle3.L
										{
											OFFSET 0.021925 0.000054 0.001819
											CHANNELS 3 Xrotation Yrotation Zrotation
											End Site
											{
												OFFSET 0.017938 0.000044 0.001488
											}
										}
									}
								}
								JOINT Ring1.L
								{
									OFFSET 0.101589 0.000294 0.009923
									CHANNELS 3 Xrotation Yrotation Zrotation
									JOINT Ring2.L
									{
										OFFSET 0.028901 0.000071 0.002398
										CHANNELS 3 Xrotation Yrotation Zrotation
										JOINT Ring3.L
										{
											OFFSET 0.019931 0.000049 0.001654
											CHANNELS 3 Xrotation Yrotation Zrotation
											End Site
											{
												OFFSET 0.016942 0.000042 0.001406
											}
										}
									}
								}
								JOINT Pinky1.L
								{
									OFFSET 0.085589 0.000294 0.009923
									CHANNELS 3 Xrotation Yrotation Zrotation
									JOINT Pinky2.L
									{
										OFFSET 0.023918 0.000059 0.001985
										CHANNELS 3 Xrotation Yrotation Zrotation
										JOINT Pinky3.L
										{
											OFFSET 0.016942 0.000042 0.001406
											CHANNELS 3 Xrotation Yrotation Zrotation
											End Site
											{
												OFFSET 0.013952 0.000034 0.001158
											}
										}
									}
								}
							}
						}
					}
				}
				JOINT Clavicle.R
				{
					OFFSET -0.048672 0.010641 0.086788
					CHANNELS 3 Xrotation Yrotation Zrotation
					JOINT UpperArm.R
					{
						OFFSET -0.111093 0.010458 0.054933
						CHANNELS 3 Xrotation Yrotation Zrotation
						JOINT ForeArm.R
						{
							OFFSET -0.289292 0.027869 -0.039957
							CHANNELS 3 Xrotation Yrotation Zrotation
							JOINT Hand.R
							{
								OFFSET -0.270975 0.014270 -0.005245
								CHANNELS 3 Xrotation Yrotation Zrotation
								JOINT Thumb1.R
								{
									OFFSET -0.154812 0.006309 -0.002319
									CHANNELS 3 Xrotation Yrotation Zrotation
									JOINT Thumb2.R
									{
										OFFSET -0.029953 0.001577 -0.000580
										CHANNELS 3 Xrotation Yrotation Zrotation
										End Site
										{
											OFFSET -0.024961 0.001314 -0.000483
										}
									}
								}
								JOINT Index1.R
								{
									OFFSET -0.137812 0.006309 -0.002319
									CHANNELS 3 Xrotation Yrotation Zrotation
									JOINT Index2.R
									{
										OFFSET -0.029953 0.001577 -0.000580
										CHANNELS 3 Xrotation Yrotation Zrotation
										JOINT Index3.R
										{
											OFFSET -0.021965 0.001157 -0.000425
											CHANNELS 3 Xrotation Yrotation Zrotation
											End Site
											{
												OFFSET -0.017972 0.000946 -0.000348
											}
										}
									}
								}
								JOINT Middle1.R
								{
									OFFSET -0.119812 0.006309 -0.002319
									CHANNELS 3 Xrotation Yrotation Zrotation
									JOINT Middle2.R
									{
										OFFSET -0.030951 0.001630 -0.000599
										CHANNELS 3 Xrotation Yrotation Zrotation
										JOINT Middle3.R
										{
											OFFSET -0.021965 0.001157 -0.000425
											CHANNELS 3 Xrotation Yrotation Zrotation
											End Site
											{
												OFFSET -0.017972 0.000946 -0.000348
											}
										}
									}
								}
								JOINT Ring1.R
								{
									OFFSET -0.101812 0.006309 -0.002319
									CHANNELS 3 Xrotation Yrotation Zrotation
									JOINT Ring2.R
									{
										OFFSET -0.028954 0.001525 -0.000560
										CHANNELS 3 Xrotation Yrotation Zrotation
										JOINT Ring3.R
										{
											OFFSET -0.019969 0.001052 -0.000387
											CHANNELS 3 Xrotation Yrotation Zrotation
											End Site
											{
												OFFSET -0.016973 0.000894 -0.000329
											}
										}
									}
								}
								JOINT Pinky1.R
								{
									OFFSET -0.085812 0.006309 -0.002319
									CHANNELS 3 Xrotation Yrotation Zrotation
									JOINT Pinky2.R
									{
										OFFSET -0.023962 0.001262 -0.000464
										CHANNELS 3 Xrotation Yrotation Zrotation
										JOINT Pinky3.R
										{
											OFFSET -0.016973 0.000894 -0.000329
											CHANNELS 3 Xrotation Yrotation Zrotation
											End Site
											{
												OFFSET -0.013978 0.000736 -0.000271
											}
										}
									}
								}
							}
						}
					}
				}
			}
		}
	}
}
MOTION
Frames: 4
Frame Time: 0.04166667
0.013843 1.170557 1.080466 -6.254905 0.222737 -0.793146 -0.646604 4.382469 -2.789213 10.675349 1.421264 -11.858633 -9.315296 -8.567947 13.449960 -0.889218 -2.447409 -0.986654 -18.901317 1.818881 1.585404 57.413116 -4.592756 1.586943 -2.751054 -1.391599 -8.732356 -0.182215 -1.524829 0.663569 10.738274 2.476969 -0.530782 -3.698079 -0.716553 -0.942595 4.853354 0.507077 -0.699511 6.640635 2.316472 4.193586 3.024441 0.323063 2.821139 0.352526 18.529997 -2.871905 24.718816 44.613955 -28.075473 14.779813 -0.492910 -21.129670 -4.347669 -3.460528 -12.918465 0.000000 0.000000 0.000000 0.000000 0.000000 0.000000 0.000000 0.000000 0.000000 0.000000 0.000000 0.000000 0.000000 0.000000 0.000000 0.000000 0.000000 0.000000 0.000000 0.000000 0.000000 0.000000 0.000000 0.000000 0.000000 0.000000 0.000000 0.000000 0.000000 0.000000 0.000000 0.000000 0.000000 0.000000 0.000000 0.000000 0.000000 0.000000 0.000000 0.000000 0.000000 0.000000 0.494102 -18.486618 5.427301 29.488200 -46.545350 24.932841 11.641734 0.670444 31.141948 -8.767879 3.708580 12.721024 0.000000 0.000000 0.000000 0.000000 0.000000 0.000000 0.000000 0.000000 0.000000 0.000000 0.000000 0.000000 0.000000 0.000000 0.000000 0.000000 0.000000 0.000000 0.000000 0.000000 0.000000 0.000000 0.000000 0.000000 0.000000 0.000000 0.000000 0.000000 0.000000 0.000000 0.000000 0.000000 0.000000 0.000000 0.000000 0.000000 0.000000 0.000000 0.000000 0.000000 0.000000 0.000000
0.012093 1.172004 1.081872 -6.779859 0.622639 0.126672 3.866266 3.880870 -1.931383 8.105408 0.877625 -14.163377 -10.743792 -8.062491 12.662420 -0.808026 -2.248493 -0.907704 -21.935327 1.300536 1.850287 51.152972 -5.355797 -0.166296 -4.205119 -1.391979 -9.489505 -0.241830 -1.649154 0.651007 11.653047 2.024772 -1.771403 -3.871666 -1.124430 -1.048219 4.734757 0.124469 -1.091507 6.475260 2.545574 4.247153 3.224424 0.266496 2.833967 -0.026066 17.618411 -3.190210 24.656337 44.356137 -30.384129 14.196501 -0.803149 -22.841759 -5.917186 -4.272287 -12.980508 0.000000 0.000000 0.000000 0.000000 0.000000 0.000000 0.000000 0.000000 0.000000 0.000000 0.000000 0.000000 0.000000 0.000000 0.000000 0.000000 0.000000 0.000000 0.000000 0.000000 0.000000 0.000000 0.000000 0.000000 0.000000 0.000000 0.000000 0.000000 0.000000 0.000000 0.000000 0.000000 0.000000 0.000000 0.000000 0.000000 0.000000 0.000000 0.000000 0.000000 0.000000 0.000000 0.495887 -18.163790 5.043329 29.784292 -46.738828 24.526918 12.006925 0.468295 30.258453 -8.535063 3.666393 12.349347 0.000000 0.000000 0.000000 0.000000 0.000000 0.000000 0.000000 0.000000 0.000000 0.000000 0.000000 0.000000 0.000000 0.000000 0.000000 0.000000 0.000000 0.000000 0.000000 0.000000 0.000000 0.000000 0.000000 0.000000 0.000000 0.000000 0.000000 0.000000 0.000000 0.000000 0.000000 0.000000 0.000000 0.000000 0.000000 0.000000 0.000000 0.000000 0.000000 0.000000 0.000000 0.000000
0.012293 1.174684 1.080886 -7.265370 0.811577 1.404579 7.837098 3.213679 -1.112238 6.421651 0.846593 -16.130555 -12.540598 -7.631290 11.454455 -0.570859 -1.612555 -0.797041 -23.249415 1.060630 2.044911 40.176003 -5.111462 -1.841836 -3.677553 -2.858376 -10.257072 -0.386142 -1.888740 0.555975 12.482769 1.862888 -2.877285 -4.254547 -1.595398 -1.253509 4.720272 -0.261940 -1.516074 6.414281 2.771121 4.067795 3.175643 -0.060993 3.239820 -0.560291 16.498008 -3.505565 24.520352 43.951409 -32.666233 13.036774 -0.883704 -25.465183 -7.648341 -5.123414 -13.510106 0.000000 0.000000 0.000000 0.000000 0.000000 0.000000 0.000000 0.000000 0.000000 0.000000 0.000000 0.000000 0.000000 0.000000 0.000000 0.000000 0.000000 0.000000 0.000000 0.000000 0.000000 0.000000 0.000000 0.000000 0.000000 0.000000 0.000000 0.000000 0.000000 0.000000 0.000000 0.000000 0.000000 0.000000 0.000000 0.000000 0.000000 0.000000 0.000000 0.000000 0.000000 0.000000 0.288841 -17.944153 4.277078 30.419324 -46.922546 24.289411 11.268947 0.051802 29.520764 -8.178439 3.600379 11.958681 0.000000 0.000000 0.000000 0.000000 0.000000 0.000000 0.000000 0.000000 0.000000 0.000000 0.000000 0.000000 0.000000 0.000000 0.000000 0.000000 0.000000 0.000000 0.000000 0.000000 0.000000 0.000000 0.000000 0.000000 0.000000 0.000000 0.000000 0.000000 0.000000 0.000000 0.000000 0.000000 0.000000 0.000000 0.000000 0.000000 0.000000 0.000000 0.000000 0.000000 0.000000 0.000000
0.016984 1.175851 1.078284 -8.337474 0.355689 2.256792 11.476252 3.091557 -0.236676 5.549109 0.782492 -17.444847 -14.018671 -7.407372 10.375673 -0.492614 -1.164410 -0.702482 -23.071244 0.848821 1.991987 28.811508 -3.418348 -2.372301 -2.663211 -4.607763 -10.462160 -0.494031 -1.986235 0.445483 13.065123 2.017433 -3.562861 -4.313187 -1.783988 -1.385351 4.740865 -0.598198 -1.774339 6.143686 2.983731 3.817251 3.158639 -0.413610 3.592305 -0.821211 15.878969 -3.835929 23.726848 43.428252 -33.881446 12.128746 -0.814234 -27.247253 -9.172810 -5.629464 -14.059958 0.000000 0.000000 0.000000 0.000000 0.000000 0.000000 0.000000 0.000000 0.000000 0.000000 0.000000 0.000000 0.000000 0.000000 0.000000 0.000000 0.000000 0.000000 0.000000 0.000000 0.000000 0.000000 0.000000 0.000000 0.000000 0.000000 0.000000 0.000000 0.000000 0.000000 0.000000 0.000000 0.000000 0.000000 0.000000 0.000000 0.000000 0.000000 0.000000 0.000000 0.000000 0.000000 0.218380 -17.717398 3.893091 30.766316 -47.238759 24.147377 10.293549 -0.122268 28.870610 -7.776981 3.299860 11.438056 0.000000 0.000000 0.000000 0.000000 0.000000 0.000000 0.000000 0.000000 0.000000 0.000000 0.000000 0.000000 0.000000 0.000000 0.000000 0.000000 0.000000 0.000000 0.000000 0.000000 0.000000 0.000000 0.000000 0.000000 0.000000 0.000000 0.000000 0.000000 0.000000 0.000000 0.000000 0.000000 0.000000 0.000000 0.000000 0.000000 0.000000 0.000000 0.000000 0.000000 0.000000 0.000000
